<svg xmlns="http://www.w3.org/2000/svg" version="1.1" xmlns:xlink="http://www.w3.org/1999/xlink" xmlns:svgjs="http://svgjs.dev/svgjs" width="2000" height="1427" viewBox="0 0 2000 1427"><g transform="matrix(1,0,0,1,0.7485794205158527,0.5777327935222729)"><svg viewBox="0 0 346 247" data-background-color="#ffffff" preserveAspectRatio="xMidYMid meet" height="1427" width="2000" xmlns="http://www.w3.org/2000/svg" xmlns:xlink="http://www.w3.org/1999/xlink"><g id="tight-bounds" transform="matrix(1,0,0,1,-0.1295042397492523,-0.09999999999999432)"><svg viewBox="0 0 346.2590084794985 247.2" height="247.2" width="346.2590084794985"><g><svg viewBox="0 0 395.5199999999999 282.36823188901656" height="247.2" width="346.2590084794985"><g transform="matrix(1,0,0,1,0,169.9441288591763)"><svg viewBox="0 0 395.5199999999999 112.4241030298403" height="112.4241030298403" width="395.5199999999999"><g id="textblocktransform"><svg viewBox="0 0 395.5199999999999 112.4241030298403" height="112.4241030298403" width="395.5199999999999" id="textblock"><g><svg viewBox="0 0 395.5199999999999 61.734434978299305" height="61.734434978299305" width="395.5199999999999"><g transform="matrix(1,0,0,1,0,0)"><svg width="395.5199999999999" viewBox="-0.1 -37.7 311.01000000000005 48.550000000000004" height="61.734434978299305" data-palette-color="#004225"><path d="M17.9-34.55L24.15-34.55 16.15 0 8.2 0-0.1-34.55 6.35-34.55 12.25-5.6 17.9-34.55ZM43.8-6.4Q43.8-5.1 44.15-4.48 44.5-3.85 45.3-3.45L45.3-3.45 44.05 0.65Q42 0.4 40.77-0.45 39.55-1.3 38.95-3.05L38.95-3.05Q36.65 0.75 32.5 0.75L32.5 0.75Q29.2 0.75 27.25-1.48 25.3-3.7 25.3-7.4L25.3-7.4Q25.3-11.7 27.97-13.95 30.65-16.2 35.75-16.2L35.75-16.2 37.8-16.2 37.8-18.05Q37.8-20.55 36.92-21.58 36.05-22.6 34.1-22.6L34.1-22.6Q31.75-22.6 28.25-21.3L28.25-21.3 26.85-25.3Q28.85-26.2 31-26.68 33.15-27.15 35.1-27.15L35.1-27.15Q43.8-27.15 43.8-18.35L43.8-18.35 43.8-6.4ZM34.15-3.7Q36.55-3.7 37.8-7L37.8-7 37.8-12.55 36.35-12.55Q33.8-12.55 32.62-11.4 31.45-10.25 31.45-7.85L31.45-7.85Q31.45-5.8 32.15-4.75 32.85-3.7 34.15-3.7L34.15-3.7ZM55.2 0.75Q52.5 0.75 50.92-0.93 49.35-2.6 49.35-5.4L49.35-5.4 49.35-37.05 55.5-37.7 55.5-5.65Q55.5-5 55.8-4.6 56.1-4.2 56.7-4.2L56.7-4.2Q57.05-4.2 57.37-4.3 57.7-4.4 57.8-4.4L57.8-4.4 59-0.2Q57.3 0.75 55.2 0.75L55.2 0.75ZM67.64 0.75Q64.94 0.75 63.37-0.93 61.79-2.6 61.79-5.4L61.79-5.4 61.79-37.05 67.94-37.7 67.94-5.65Q67.94-5 68.24-4.6 68.54-4.2 69.14-4.2L69.14-4.2Q69.49-4.2 69.82-4.3 70.14-4.4 70.24-4.4L70.24-4.4 71.44-0.2Q69.74 0.75 67.64 0.75L67.64 0.75ZM93.34-13.85Q93.34-13.4 93.19-11.3L93.19-11.3 79.54-11.3Q79.74-7.2 80.97-5.58 82.19-3.95 84.44-3.95L84.44-3.95Q85.99-3.95 87.24-4.48 88.49-5 89.94-6.15L89.94-6.15 92.49-2.65Q88.99 0.75 84.09 0.75L84.09 0.75Q78.89 0.75 76.12-2.85 73.34-6.45 73.34-13L73.34-13Q73.34-19.55 75.99-23.35 78.64-27.15 83.49-27.15L83.49-27.15Q88.14-27.15 90.74-23.78 93.34-20.4 93.34-13.85L93.34-13.85ZM87.34-15.3L87.34-15.65Q87.34-19.4 86.44-21.13 85.54-22.85 83.54-22.85L83.54-22.85Q81.69-22.85 80.72-21.18 79.74-19.5 79.54-15.3L79.54-15.3 87.34-15.3ZM116.29-26.45L109.29 0.1Q107.99 4.9 105.09 7.65 102.19 10.4 97.34 10.85L97.34 10.85 96.64 6.5Q99.79 5.85 101.36 4.42 102.94 3 103.84 0L103.84 0 101.54 0 94.84-26.45 101.09-26.45 105.49-4.1 110.19-26.45 116.29-26.45ZM150.88 0L144.48 0 144.48-15.5 135.53-15.5 135.53 0 129.18 0 129.18-34.55 135.53-34.55 135.53-20.6 144.48-20.6 144.48-34.55 150.88-34.55 150.88 0ZM173.58-6.4Q173.58-5.1 173.93-4.48 174.28-3.85 175.08-3.45L175.08-3.45 173.83 0.65Q171.78 0.4 170.56-0.45 169.33-1.3 168.73-3.05L168.73-3.05Q166.43 0.75 162.28 0.75L162.28 0.75Q158.98 0.75 157.03-1.48 155.08-3.7 155.08-7.4L155.08-7.4Q155.08-11.7 157.76-13.95 160.43-16.2 165.53-16.2L165.53-16.2 167.58-16.2 167.58-18.05Q167.58-20.55 166.71-21.58 165.83-22.6 163.88-22.6L163.88-22.6Q161.53-22.6 158.03-21.3L158.03-21.3 156.63-25.3Q158.63-26.2 160.78-26.68 162.93-27.15 164.88-27.15L164.88-27.15Q173.58-27.15 173.58-18.35L173.58-18.35 173.58-6.4ZM163.93-3.7Q166.33-3.7 167.58-7L167.58-7 167.58-12.55 166.13-12.55Q163.58-12.55 162.41-11.4 161.23-10.25 161.23-7.85L161.23-7.85Q161.23-5.8 161.93-4.75 162.63-3.7 163.93-3.7L163.93-3.7ZM191.78-26.45L197.83-26.45 190.93 0 183.68 0 176.58-26.45 182.93-26.45 187.28-4.95 191.78-26.45ZM219.58-13.85Q219.58-13.4 219.43-11.3L219.43-11.3 205.78-11.3Q205.98-7.2 207.2-5.58 208.43-3.95 210.68-3.95L210.68-3.95Q212.23-3.95 213.48-4.48 214.73-5 216.18-6.15L216.18-6.15 218.73-2.65Q215.23 0.75 210.33 0.75L210.33 0.75Q205.13 0.75 202.35-2.85 199.58-6.45 199.58-13L199.58-13Q199.58-19.55 202.23-23.35 204.88-27.15 209.73-27.15L209.73-27.15Q214.38-27.15 216.98-23.78 219.58-20.4 219.58-13.85L219.58-13.85ZM213.58-15.3L213.58-15.65Q213.58-19.4 212.68-21.13 211.78-22.85 209.78-22.85L209.78-22.85Q207.93-22.85 206.95-21.18 205.98-19.5 205.78-15.3L205.78-15.3 213.58-15.3ZM236.22-27.15Q239.07-27.15 240.72-25.1 242.37-23.05 242.37-19.6L242.37-19.6 242.37 0 236.22 0 236.22-18.9Q236.22-20.8 235.7-21.63 235.17-22.45 234.17-22.45L234.17-22.45Q232.07-22.45 230.02-18.5L230.02-18.5 230.02 0 223.87 0 223.87-26.45 229.22-26.45 229.67-23Q231.02-25.1 232.55-26.13 234.07-27.15 236.22-27.15L236.22-27.15ZM257.92-34.55L264.27-34.55 264.27 0 257.92 0 257.92-34.55ZM282.47-27.15Q285.32-27.15 286.97-25.1 288.62-23.05 288.62-19.6L288.62-19.6 288.62 0 282.47 0 282.47-18.9Q282.47-20.8 281.94-21.63 281.42-22.45 280.42-22.45L280.42-22.45Q278.32-22.45 276.27-18.5L276.27-18.5 276.27 0 270.12 0 270.12-26.45 275.47-26.45 275.92-23Q277.27-25.1 278.79-26.13 280.32-27.15 282.47-27.15L282.47-27.15ZM303.66-27.15Q305.81-27.15 307.56-26.43 309.31-25.7 310.91-24.15L310.91-24.15 308.26-20.65Q307.16-21.55 306.19-21.98 305.21-22.4 304.06-22.4L304.06-22.4Q301.81-22.4 300.66-20.28 299.51-18.15 299.51-13.1L299.51-13.1Q299.51-8.2 300.69-6.2 301.86-4.2 304.06-4.2L304.06-4.2Q305.16-4.2 306.06-4.6 306.96-5 308.16-5.85L308.16-5.85 310.91-2.3Q307.71 0.75 303.76 0.75L303.76 0.75Q298.66 0.75 295.84-2.73 293.01-6.2 293.01-13L293.01-13Q293.01-17.4 294.31-20.6 295.61-23.8 298.04-25.48 300.46-27.15 303.66-27.15L303.66-27.15Z" opacity="1" transform="matrix(1,0,0,1,0,0)" fill="#004225" class="wordmark-text-0" data-fill-palette-color="primary" id="text-0"></path></svg></g></svg></g><g transform="matrix(1,0,0,1,0,76.3084534502363)"><svg viewBox="0 0 395.5199999999999 36.115649579604" height="36.115649579604" width="395.5199999999999"><g transform="matrix(1,0,0,1,0,0)"><svg width="395.5199999999999" viewBox="3 -39.65 552.98 50.5" height="36.115649579604" data-palette-color="#cd5c08"><path d="M3-34.55L20.15-34.55 19.5-29.8 9.35-29.8 9.35-19.9 18.2-19.9 18.2-15.2 9.35-15.2 9.35-4.8 20.15-4.8 20.15 0 3 0 3-34.55ZM48.15-27.15Q50.8-27.15 52.4-25.1 54-23.05 54-19.6L54-19.6 54 0 47.95 0 47.95-18.95Q47.95-20.85 47.45-21.68 46.95-22.5 46-22.5L46-22.5Q44.05-22.5 42.25-18.8L42.25-18.8 42.25 0 36.25 0 36.25-18.95Q36.25-22.5 34.35-22.5L34.35-22.5Q32.3-22.5 30.55-18.8L30.55-18.8 30.55 0 24.5 0 24.5-26.45 29.85-26.45 30.25-23.05Q32.85-27.15 36.5-27.15L36.5-27.15Q38.35-27.15 39.7-26 41.05-24.85 41.75-22.75L41.75-22.75Q44.4-27.15 48.15-27.15L48.15-27.15ZM78.34-13.85Q78.34-13.4 78.2-11.3L78.2-11.3 64.55-11.3Q64.75-7.2 65.97-5.58 67.2-3.95 69.45-3.95L69.45-3.95Q71-3.95 72.25-4.48 73.5-5 74.95-6.15L74.95-6.15 77.5-2.65Q74 0.75 69.09 0.75L69.09 0.75Q63.9 0.75 61.12-2.85 58.35-6.45 58.35-13L58.35-13Q58.35-19.55 61-23.35 63.65-27.15 68.5-27.15L68.5-27.15Q73.15-27.15 75.75-23.78 78.34-20.4 78.34-13.85L78.34-13.85ZM72.34-15.3L72.34-15.65Q72.34-19.4 71.45-21.13 70.55-22.85 68.55-22.85L68.55-22.85Q66.7-22.85 65.72-21.18 64.75-19.5 64.55-15.3L64.55-15.3 72.34-15.3ZM94.29-27.1Q95.44-27.1 96.34-26.75L96.34-26.75 95.34-20.85Q94.34-21.1 93.49-21.1L93.49-21.1Q91.59-21.1 90.49-19.45 89.39-17.8 88.79-14.55L88.79-14.55 88.79 0 82.64 0 82.64-26.45 87.99-26.45 88.44-21.85Q90.29-27.1 94.29-27.1L94.29-27.1ZM117.14-29.85L118.69-25.1Q117.64-24.6 116.17-24.4 114.69-24.2 112.49-24.2L112.49-24.2Q114.59-23.2 115.62-21.53 116.64-19.85 116.64-17.4L116.64-17.4Q116.64-13.4 114.19-10.95 111.74-8.5 107.54-8.5L107.54-8.5Q106.29-8.5 104.99-8.9L104.99-8.9Q104.09-8.15 104.09-6.85L104.09-6.85Q104.09-5.85 104.64-5.35 105.19-4.85 106.69-4.85L106.69-4.85 109.49-4.85Q113.49-4.85 115.84-2.78 118.19-0.7 118.19 2.5L118.19 2.5Q118.19 6.3 115.27 8.58 112.34 10.85 106.94 10.85L106.94 10.85Q101.24 10.85 98.97 8.75 96.69 6.65 96.69 2.6L96.69 2.6 102.14 2.6Q102.14 4.75 103.14 5.65 104.14 6.55 106.99 6.55L106.99 6.55Q109.74 6.55 110.89 5.6 112.04 4.65 112.04 2.9L112.04 2.9Q112.04 1.2 111.09 0.4 110.14-0.4 108.14-0.4L108.14-0.4 106.24-0.4Q102.44-0.4 100.69-1.75 98.94-3.1 98.94-5.45L98.94-5.45Q98.94-6.8 99.67-8.03 100.39-9.25 101.64-10.2L101.64-10.2Q99.59-11.5 98.64-13.3 97.69-15.1 97.69-17.7L97.69-17.7Q97.69-22.05 100.29-24.58 102.89-27.1 107.29-27.1L107.29-27.1Q110.54-27.1 112.67-27.8 114.79-28.5 117.14-29.85L117.14-29.85ZM107.29-23Q105.54-23 104.64-21.75 103.74-20.5 103.74-17.8L103.74-17.8Q103.74-15.25 104.64-13.88 105.54-12.5 107.24-12.5L107.24-12.5Q108.99-12.5 109.84-13.73 110.69-14.95 110.69-17.85L110.69-17.85Q110.69-20.55 109.87-21.78 109.04-23 107.29-23L107.29-23ZM140.29-13.85Q140.29-13.4 140.14-11.3L140.14-11.3 126.49-11.3Q126.69-7.2 127.91-5.58 129.14-3.95 131.39-3.95L131.39-3.95Q132.94-3.95 134.19-4.48 135.44-5 136.89-6.15L136.89-6.15 139.44-2.65Q135.94 0.75 131.04 0.75L131.04 0.75Q125.84 0.75 123.06-2.85 120.29-6.45 120.29-13L120.29-13Q120.29-19.55 122.94-23.35 125.59-27.15 130.44-27.15L130.44-27.15Q135.09-27.15 137.69-23.78 140.29-20.4 140.29-13.85L140.29-13.85ZM134.29-15.3L134.29-15.65Q134.29-19.4 133.39-21.13 132.49-22.85 130.49-22.85L130.49-22.85Q128.64-22.85 127.66-21.18 126.69-19.5 126.49-15.3L126.49-15.3 134.29-15.3ZM156.94-27.15Q159.79-27.15 161.44-25.1 163.09-23.05 163.09-19.6L163.09-19.6 163.09 0 156.94 0 156.94-18.9Q156.94-20.8 156.41-21.63 155.89-22.45 154.89-22.45L154.89-22.45Q152.79-22.45 150.74-18.5L150.74-18.5 150.74 0 144.59 0 144.59-26.45 149.94-26.45 150.39-23Q151.74-25.1 153.26-26.13 154.79-27.15 156.94-27.15L156.94-27.15ZM178.13-27.15Q180.28-27.15 182.03-26.43 183.78-25.7 185.38-24.15L185.38-24.15 182.73-20.65Q181.63-21.55 180.66-21.98 179.68-22.4 178.53-22.4L178.53-22.4Q176.28-22.4 175.13-20.28 173.98-18.15 173.98-13.1L173.98-13.1Q173.98-8.2 175.16-6.2 176.33-4.2 178.53-4.2L178.53-4.2Q179.63-4.2 180.53-4.6 181.43-5 182.63-5.85L182.63-5.85 185.38-2.3Q182.18 0.75 178.23 0.75L178.23 0.75Q173.13 0.75 170.31-2.73 167.48-6.2 167.48-13L167.48-13Q167.48-17.4 168.78-20.6 170.08-23.8 172.51-25.48 174.93-27.15 178.13-27.15L178.13-27.15ZM207.08-26.45L200.08 0.1Q198.78 4.9 195.88 7.65 192.98 10.4 188.13 10.85L188.13 10.85 187.43 6.5Q190.58 5.85 192.16 4.42 193.73 3 194.63 0L194.63 0 192.33 0 185.63-26.45 191.88-26.45 196.28-4.1 200.98-26.45 207.08-26.45ZM231.48-35.25Q234.13-35.25 236.15-34.38 238.18-33.5 240.08-31.7L240.08-31.7 237.03-28.05Q235.73-29.25 234.5-29.83 233.28-30.4 231.83-30.4L231.83-30.4Q228.83-30.4 227.13-27.4 225.43-24.4 225.43-17.35L225.43-17.35Q225.43-10.4 227.13-7.38 228.83-4.35 231.93-4.35L231.93-4.35Q233.48-4.35 234.63-4.98 235.78-5.6 237.33-6.9L237.33-6.9 240.38-3.4Q238.78-1.6 236.53-0.43 234.28 0.75 231.48 0.75L231.48 0.75Q225.63 0.75 222.18-3.8 218.73-8.35 218.73-17.35L218.73-17.35Q218.73-23.3 220.38-27.3 222.03-31.3 224.9-33.27 227.78-35.25 231.48-35.25L231.48-35.25ZM255.97-27.15Q258.82-27.15 260.47-25.1 262.12-23.05 262.12-19.6L262.12-19.6 262.12 0 255.97 0 255.97-18.9Q255.97-20.8 255.45-21.63 254.92-22.45 253.92-22.45L253.92-22.45Q251.82-22.45 249.77-18.5L249.77-18.5 249.77 0 243.62 0 243.62-37 249.77-37.65 249.77-23.3Q251.02-25.25 252.5-26.2 253.97-27.15 255.97-27.15L255.97-27.15ZM267.67-26.45L273.82-26.45 273.82 0 267.67 0 267.67-26.45ZM270.72-39.65Q272.37-39.65 273.4-38.6 274.42-37.55 274.42-35.9L274.42-35.9Q274.42-34.3 273.4-33.25 272.37-32.2 270.72-32.2L270.72-32.2Q269.07-32.2 268.05-33.25 267.02-34.3 267.02-35.9L267.02-35.9Q267.02-37.55 268.05-38.6 269.07-39.65 270.72-39.65L270.72-39.65ZM285.12 0.75Q282.42 0.75 280.84-0.93 279.27-2.6 279.27-5.4L279.27-5.4 279.27-37.05 285.42-37.7 285.42-5.65Q285.42-5 285.72-4.6 286.02-4.2 286.62-4.2L286.62-4.2Q286.97-4.2 287.29-4.3 287.62-4.4 287.72-4.4L287.72-4.4 288.92-0.2Q287.22 0.75 285.12 0.75L285.12 0.75ZM304.92-37.7L311.07-37.05 311.07 0 305.62 0 305.32-3.05Q302.97 0.75 299.27 0.75L299.27 0.75Q295.17 0.75 292.99-2.93 290.82-6.6 290.82-13.2L290.82-13.2Q290.82-17.4 291.94-20.58 293.07-23.75 295.07-25.45 297.07-27.15 299.67-27.15L299.67-27.15Q302.87-27.15 304.92-24.5L304.92-24.5 304.92-37.7ZM301.02-3.9Q302.17-3.9 303.09-4.7 304.02-5.5 304.92-7L304.92-7 304.92-19.85Q303.32-22.55 301.27-22.55L301.27-22.55Q297.22-22.55 297.22-13.25L297.22-13.25Q297.22-8.2 298.22-6.05 299.22-3.9 301.02-3.9L301.02-3.9ZM328.41-27.1Q329.56-27.1 330.46-26.75L330.46-26.75 329.46-20.85Q328.46-21.1 327.61-21.1L327.61-21.1Q325.71-21.1 324.61-19.45 323.51-17.8 322.91-14.55L322.91-14.55 322.91 0 316.76 0 316.76-26.45 322.11-26.45 322.56-21.85Q324.41-27.1 328.41-27.1L328.41-27.1ZM352.16-13.85Q352.16-13.4 352.01-11.3L352.01-11.3 338.36-11.3Q338.56-7.2 339.79-5.58 341.01-3.95 343.26-3.95L343.26-3.95Q344.81-3.95 346.06-4.48 347.31-5 348.76-6.15L348.76-6.15 351.31-2.65Q347.81 0.75 342.91 0.75L342.91 0.75Q337.71 0.75 334.94-2.85 332.16-6.45 332.16-13L332.16-13Q332.16-19.55 334.81-23.35 337.46-27.15 342.31-27.15L342.31-27.15Q346.96-27.15 349.56-23.78 352.16-20.4 352.16-13.85L352.16-13.85ZM346.16-15.3L346.16-15.65Q346.16-19.4 345.26-21.13 344.36-22.85 342.36-22.85L342.36-22.85Q340.51-22.85 339.54-21.18 338.56-19.5 338.36-15.3L338.36-15.3 346.16-15.3ZM368.81-27.15Q371.66-27.15 373.31-25.1 374.96-23.05 374.96-19.6L374.96-19.6 374.96 0 368.81 0 368.81-18.9Q368.81-20.8 368.28-21.63 367.76-22.45 366.76-22.45L366.76-22.45Q364.66-22.45 362.61-18.5L362.61-18.5 362.61 0 356.46 0 356.46-26.45 361.81-26.45 362.26-23Q363.61-25.1 365.13-26.13 366.66-27.15 368.81-27.15L368.81-27.15ZM384.76-21.05L380.71-21.05 380.01-34.55 385.46-34.55 384.76-21.05ZM398-27.15Q402.7-27.15 405.95-24.05L405.95-24.05 403.6-20.7Q402.2-21.7 400.95-22.2 399.7-22.7 398.4-22.7L398.4-22.7Q396.95-22.7 396.13-21.93 395.3-21.15 395.3-19.8L395.3-19.8Q395.3-18.45 396.23-17.63 397.15-16.8 399.95-15.7L399.95-15.7Q403.4-14.35 405.05-12.5 406.7-10.65 406.7-7.55L406.7-7.55Q406.7-3.7 404-1.48 401.3 0.75 397.15 0.75L397.15 0.75Q394.45 0.75 392.18-0.23 389.9-1.2 388.2-2.95L388.2-2.95 391.2-6.25Q394-3.8 396.9-3.8L396.9-3.8Q398.55-3.8 399.5-4.67 400.45-5.55 400.45-7.1L400.45-7.1Q400.45-8.25 400.05-8.97 399.65-9.7 398.65-10.33 397.65-10.95 395.65-11.7L395.65-11.7Q392.2-13.05 390.73-14.85 389.25-16.65 389.25-19.45L389.25-19.45Q389.25-22.8 391.63-24.98 394-27.15 398-27.15L398-27.15ZM429.3-35.25Q432.3-35.25 434.6-34.2 436.9-33.15 438.85-31.05L438.85-31.05 435.9-27.65Q434.35-29.05 432.87-29.75 431.4-30.45 429.75-30.45L429.75-30.45Q427.85-30.45 426.75-29.28 425.65-28.1 425.65-26.2L425.65-26.2Q425.65-24.3 426.8-23.1 427.95-21.9 431.3-20.6L431.3-20.6Q435.6-18.85 437.62-16.5 439.65-14.15 439.65-9.85L439.65-9.85Q439.65-6.9 438.3-4.48 436.95-2.05 434.42-0.65 431.9 0.75 428.55 0.75L428.55 0.75Q425.1 0.75 422.55-0.48 420-1.7 417.9-3.95L417.9-3.95 421.1-7.45Q422.9-5.85 424.55-5 426.2-4.15 428.15-4.15L428.15-4.15Q430.45-4.15 431.72-5.58 433-7 433-9.45L433-9.45Q433-11.6 431.87-12.98 430.75-14.35 427.7-15.5L427.7-15.5Q423.1-17.35 421.07-19.75 419.05-22.15 419.05-25.75L419.05-25.75Q419.05-28.5 420.37-30.65 421.7-32.8 424.05-34.02 426.4-35.25 429.3-35.25L429.3-35.25ZM456-27.15Q458.85-27.15 460.5-25.1 462.15-23.05 462.15-19.6L462.15-19.6 462.15 0 456 0 456-18.9Q456-20.8 455.47-21.63 454.95-22.45 453.95-22.45L453.95-22.45Q451.85-22.45 449.8-18.5L449.8-18.5 449.8 0 443.65 0 443.65-37 449.8-37.65 449.8-23.3Q451.05-25.25 452.52-26.2 454-27.15 456-27.15L456-27.15ZM486.54-13.85Q486.54-13.4 486.39-11.3L486.39-11.3 472.74-11.3Q472.94-7.2 474.17-5.58 475.39-3.95 477.64-3.95L477.64-3.95Q479.19-3.95 480.44-4.48 481.69-5 483.14-6.15L483.14-6.15 485.69-2.65Q482.19 0.75 477.29 0.75L477.29 0.75Q472.09 0.75 469.32-2.85 466.54-6.45 466.54-13L466.54-13Q466.54-19.55 469.19-23.35 471.84-27.15 476.69-27.15L476.69-27.15Q481.34-27.15 483.94-23.78 486.54-20.4 486.54-13.85L486.54-13.85ZM480.54-15.3L480.54-15.65Q480.54-19.4 479.64-21.13 478.74-22.85 476.74-22.85L476.74-22.85Q474.89-22.85 473.92-21.18 472.94-19.5 472.74-15.3L472.74-15.3 480.54-15.3ZM496.44 0.75Q493.74 0.75 492.17-0.93 490.59-2.6 490.59-5.4L490.59-5.4 490.59-37.05 496.74-37.7 496.74-5.65Q496.74-5 497.04-4.6 497.34-4.2 497.94-4.2L497.94-4.2Q498.29-4.2 498.62-4.3 498.94-4.4 499.04-4.4L499.04-4.4 500.24-0.2Q498.54 0.75 496.44 0.75L496.44 0.75ZM514.44-5L516.59-1.2Q514.14 0.75 510.84 0.75L510.84 0.75Q507.39 0.75 505.59-1.23 503.79-3.2 503.79-6.6L503.79-6.6 503.79-22 500.69-22 500.69-26.45 503.79-26.45 503.79-32.3 509.94-33.05 509.94-26.45 514.94-26.45 514.34-22 509.94-22 509.94-6.6Q509.94-4.2 511.99-4.2L511.99-4.2Q512.64-4.2 513.14-4.38 513.64-4.55 514.44-5L514.44-5ZM537.99-13.85Q537.99-13.4 537.83-11.3L537.83-11.3 524.18-11.3Q524.38-7.2 525.61-5.58 526.83-3.95 529.08-3.95L529.08-3.95Q530.63-3.95 531.88-4.48 533.13-5 534.58-6.15L534.58-6.15 537.13-2.65Q533.63 0.75 528.74 0.75L528.74 0.75Q523.53 0.75 520.76-2.85 517.99-6.45 517.99-13L517.99-13Q517.99-19.55 520.63-23.35 523.28-27.15 528.13-27.15L528.13-27.15Q532.78-27.15 535.38-23.78 537.99-20.4 537.99-13.85L537.99-13.85ZM531.99-15.3L531.99-15.65Q531.99-19.4 531.08-21.13 530.18-22.85 528.18-22.85L528.18-22.85Q526.33-22.85 525.36-21.18 524.38-19.5 524.18-15.3L524.18-15.3 531.99-15.3ZM553.93-27.1Q555.08-27.1 555.98-26.75L555.98-26.75 554.98-20.85Q553.98-21.1 553.13-21.1L553.13-21.1Q551.23-21.1 550.13-19.45 549.03-17.8 548.43-14.55L548.43-14.55 548.43 0 542.28 0 542.28-26.45 547.63-26.45 548.08-21.85Q549.93-27.1 553.93-27.1L553.93-27.1Z" opacity="1" transform="matrix(1,0,0,1,0,0)" fill="#cd5c08" class="slogan-text-1" data-fill-palette-color="secondary" id="text-1"></path></svg></g></svg></g></svg></g></svg></g><g transform="matrix(1,0,0,1,81.51117301473141,0)"><svg viewBox="0 0 232.4976539705371 155.3701103872393" height="155.3701103872393" width="232.4976539705371"><g><svg xmlns="http://www.w3.org/2000/svg" xmlns:xlink="http://www.w3.org/1999/xlink" version="1.1" x="8" y="0" viewBox="0.47829121577209766 18.131999999999998 125.04099680613815 89.73600000000002" enable-background="new 0 0 126 126" xml:space="preserve" height="155.3701103872393" width="216.4976539705371" class="icon-icon-0" data-fill-palette-color="accent" id="icon-0"><g fill="#cd5c08" data-fill-palette-color="accent"><path d="M47.343 72.731c-0.546-0.424-4.877-3.7-16.893-4.497-0.661-0.055-1.327-0.524-1.914-0.917-0.747-0.497-1.523-1.019-2.089-1.692-0.92-1.098-1.959-2.022-2.832-3.241-5.842-8.144-11.567-9.779-12.423-10.102-1.14-0.55-5.507 0.127-3.409 3.039 0.133 0.022 6.68 9.219 7.105 9.954 0.752 1.298 1.603 1.829 2.402 2.74 0.73 0.832 1.538 1.597 2.284 2.415 0 0-4.187-2.479-5.19-3.565-0.447-0.487-0.662-1.184-1.018-1.762-0.412-0.666-0.85-1.315-1.297-1.957-0.56-0.801-1.123-1.6-1.717-2.375-0.758-0.987-1.545-1.953-2.326-2.923-0.486-0.604-1.035-1.187-1.436-1.818-1.98-3.128 0.281-4.999 2.433-5.235-0.104-0.36-1.094-9.819-1.267-11.407-0.494-4.56-0.982-7.938-3.596-8.857-0.674-0.238-1.15-0.158-1.652 0.372-0.594 0.624-0.948 3.936-1.119 6.03 0 0-1.143 11.236-0.868 16.479 0.147 2.812 8.882 22.156 11.392 25.145 2.508 2.988 22.139 14.304 22.139 14.304 0.656 0.546 4.291 3.345 4.291 7.015v7.967l21.164 0.025 0.018-7.311c0.049-1.351 0.279-2.695 0.441-4.041 0.461-1.537 0.092-4.442-0.123-5.57C57.385 79.977 48.332 73.497 47.343 72.731z" fill="#cd5c08" data-fill-palette-color="accent"></path><path d="M124.61 36.933c-0.172-2.095-0.525-5.406-1.119-6.03-0.502-0.53-0.979-0.61-1.653-0.372-2.612 0.92-3.102 4.298-3.595 8.857-0.174 1.588-1.163 11.047-1.268 11.407 2.152 0.236 4.414 2.107 2.433 5.235-0.4 0.632-0.948 1.214-1.435 1.818-0.781 0.97-1.569 1.936-2.327 2.923-0.594 0.775-1.157 1.574-1.716 2.375-0.447 0.642-0.886 1.291-1.297 1.957-0.355 0.578-0.57 1.274-1.019 1.762-1.004 1.087-5.19 3.565-5.19 3.565 0.746-0.818 1.555-1.583 2.285-2.415 0.799-0.911 1.649-1.442 2.401-2.74 0.427-0.735 6.974-9.932 7.106-9.954 2.098-2.912-2.27-3.589-3.41-3.039-0.855 0.322-6.58 1.958-12.422 10.102-0.873 1.219-1.913 2.144-2.832 3.241-0.566 0.674-1.343 1.195-2.09 1.692-0.587 0.393-1.253 0.862-1.914 0.917-12.016 0.797-16.346 4.073-16.893 4.497-0.989 0.766-10.041 7.245-12.5 18.214-0.216 1.128-0.584 4.033-0.123 5.57 0.162 1.346 0.393 2.69 0.441 4.041l0.018 7.311 21.164-0.025v-7.967c0-3.67 3.635-6.469 4.291-7.015 0 0 19.63-11.315 22.139-14.304s11.243-22.333 11.391-25.145C125.753 48.169 124.61 36.933 124.61 36.933z" fill="#cd5c08" data-fill-palette-color="accent"></path><circle cx="51.633" cy="27.545" r="9.4" fill="#cd5c08" data-fill-palette-color="accent"></circle><circle cx="74.366" cy="29.801" r="9.2" fill="#cd5c08" data-fill-palette-color="accent"></circle><path d="M73.707 72.36c1.083-0.997 2.106-1.839 2.981-2.502l0.133-0.101c1.02-0.79 3.366-2.262 7.791-3.455l-0.806-5.549v-5.348c1.004 2.505 1.876 5.844 2.634 10.453 1.979-0.439 4.306-0.813 7.023-1.065-2.131-13.114-5.403-18.991-12.938-23.611-0.154-0.095-2.639-1.411-3.806-1.698l-2.281 2.296-2.21-2.321c-0.008 0.002-0.016 0.004-0.023 0.005-1.691 0.405-5.777 3.044-7.918 5.087-1.711-2.049-3.781-3.743-6.32-5.302-0.158-0.097-2.715-1.45-3.916-1.745l-2.344 2.36-2.273-2.387c-0.008 0.002-0.016 0.003-0.023 0.005-1.617 0.557-3.051 1.391-4.753 2.537-7.126 4.792-10.232 11.133-12.307 24.758 2.804 0.251 5.198 0.632 7.227 1.082 0.721-4.717 1.548-8.229 2.495-10.902v11.507c0 0.011 0.002 0.021 0.002 0.033 3.976 1.154 6.143 2.514 7.108 3.263l0.13 0.099c0.878 0.665 1.904 1.51 2.99 2.51 2.889-6.467 8.41-7.744 9.203-7.935 0.006 0 0.012-0.001 0.017-0.004L63 65.982l1.477-1.553c0.006 0.003 0.013 0.004 0.018 0.004C65.287 64.624 70.819 65.889 73.707 72.36zM63 64.076c-3.491-0.034-6.311-2.873-6.311-6.369 0-3.498 2.819-6.336 6.311-6.369 3.49 0.033 6.311 2.871 6.311 6.369C69.311 61.203 66.49 64.042 63 64.076z" fill="#cd5c08" data-fill-palette-color="accent"></path></g></svg></g></svg></g><g><rect width="56.8806772544807" height="5.56727505627993" y="148.80283533095934" x="314.0088269852685" fill="#cd5c08" data-fill-palette-color="accent"></rect><rect width="56.8806772544807" height="5.56727505627993" y="148.80283533095934" x="24.63049576025071" fill="#cd5c08" data-fill-palette-color="accent"></rect><rect width="56.8806772544807" height="5.56727505627993" y="137.6682852183995" x="314.0088269852685" fill="#cd5c08" data-fill-palette-color="accent"></rect><rect width="56.8806772544807" height="5.56727505627993" y="137.6682852183995" x="24.63049576025071" fill="#cd5c08" data-fill-palette-color="accent"></rect></g></svg></g><defs></defs></svg><rect width="346.2590084794985" height="247.2" fill="none" stroke="none" visibility="hidden"></rect></g></svg></g></svg>